<?xml version="1.0" encoding="utf-8"?>
<!-- Generator: Adobe Illustrator 15.0.0, SVG Export Plug-In . SVG Version: 6.00 Build 0)  -->
<!DOCTYPE svg PUBLIC "-//W3C//DTD SVG 1.1//EN" "http://www.w3.org/Graphics/SVG/1.1/DTD/svg11.dtd">
<svg version="1.1" id="Layer_1" xmlns="http://www.w3.org/2000/svg" xmlns:xlink="http://www.w3.org/1999/xlink" x="0px" y="0px"
	 width="36.218px" height="29.957px" viewBox="0 0 36.218 29.957" enable-background="new 0 0 36.218 29.957" xml:space="preserve">
<path fill="#FFFFFF" d="M0,11.179v7.602c0,6.172,5.005,11.177,11.179,11.177h25.04V11.179C36.218,5.005,31.213,0,25.039,0h-13.86
	C5.005,0,0,5.005,0,11.179z M27.476,8.055c0.74-0.772,1.639-1.159,2.635-1.189v3.888H26.35C26.384,9.692,26.769,8.792,27.476,8.055z
	 M26.35,11.043h7.587l-7.587,7.584V11.043z M18.284,11.043h7.586l-7.586,7.584V11.043z M10.192,11.066h7.585l-7.585,7.615V11.066z
	 M3.248,8.11C3.99,7.338,4.857,6.951,5.885,6.92v3.888h-3.76C2.155,9.716,2.543,8.848,3.248,8.11z M2.125,11.066h7.584l-7.584,7.615
	V11.066z M9.903,26.943c-2.122-0.035-3.954-0.806-5.496-2.314c-1.511-1.512-2.252-3.342-2.283-5.496h7.779V26.943z M9.903,18.873
	H2.285l7.618-7.612V18.873z M6.173,10.808V6.92C7.17,6.951,8.07,7.338,8.809,8.11c0.707,0.737,1.06,1.605,1.094,2.697H6.173z
	 M15.655,24.629c-1.478,1.509-3.343,2.279-5.463,2.314v-7.811h7.778C17.938,21.287,17.166,23.117,15.655,24.629z M17.97,18.873
	h-7.618l7.618-7.614V18.873z M17.97,10.808h-7.778c0-2.121,0.77-3.951,2.282-5.494C14.016,3.801,15.848,3.03,17.97,3V10.808z
	 M23.748,24.605c-1.477,1.512-3.342,2.281-5.464,2.312v-7.777h7.778C26.031,21.262,25.257,23.127,23.748,24.605z M26.062,18.818
	h-7.617l7.617-7.615V18.818z M18.284,10.753V2.976c2.122,0.033,3.987,0.77,5.464,2.281c1.51,1.543,2.283,3.374,2.314,5.496H18.284z
	 M31.815,24.605c-1.479,1.512-3.343,2.281-5.465,2.312v-7.777h7.777C34.098,21.262,33.326,23.127,31.815,24.605z M34.127,18.818
	h-7.614l7.614-7.615V18.818z M30.402,10.753V6.865c0.996,0.03,1.896,0.417,2.633,1.189c0.71,0.737,1.063,1.638,1.093,2.698H30.402z"
	/>
</svg>
